<mxfile host="app.diagrams.net" modified="2023-03-08T19:26:45.692Z" agent="5.0 (Windows)" etag="JgfY-HD1FYNSerWCp-07" version="21.0.2" type="github">
  <diagram name="Page-1" id="Xd1cMqrH2tlCXthwi0Es">
    <mxGraphModel dx="1050" dy="558" grid="1" gridSize="10" guides="1" tooltips="1" connect="1" arrows="1" fold="1" page="1" pageScale="1" pageWidth="827" pageHeight="1169" math="0" shadow="0">
      <root>
        <mxCell id="0" />
        <mxCell id="1" parent="0" />
        <mxCell id="opwTgjGISmNo6KvwqeTO-1" value="Jugador" style="shape=umlActor;verticalLabelPosition=bottom;verticalAlign=top;html=1;outlineConnect=0;" parent="1" vertex="1">
          <mxGeometry x="360" y="440" width="30" height="60" as="geometry" />
        </mxCell>
        <mxCell id="opwTgjGISmNo6KvwqeTO-5" value="Controlar Ángel" style="ellipse;whiteSpace=wrap;html=1;" parent="1" vertex="1">
          <mxGeometry x="140" y="330" width="140" height="70" as="geometry" />
        </mxCell>
        <mxCell id="opwTgjGISmNo6KvwqeTO-6" value="Controlar Demonio" style="ellipse;whiteSpace=wrap;html=1;" parent="1" vertex="1">
          <mxGeometry x="480" y="320" width="140" height="70" as="geometry" />
        </mxCell>
        <mxCell id="opwTgjGISmNo6KvwqeTO-7" value="Probar Fe" style="ellipse;whiteSpace=wrap;html=1;" parent="1" vertex="1">
          <mxGeometry x="140" y="190" width="140" height="70" as="geometry" />
        </mxCell>
        <mxCell id="opwTgjGISmNo6KvwqeTO-8" value="&lt;div&gt;Seducir&lt;/div&gt;&lt;div&gt;Humano&lt;br&gt;&lt;/div&gt;" style="ellipse;whiteSpace=wrap;html=1;" parent="1" vertex="1">
          <mxGeometry x="480" y="190" width="140" height="70" as="geometry" />
        </mxCell>
        <mxCell id="opwTgjGISmNo6KvwqeTO-9" value="&lt;div&gt;Robar&lt;/div&gt;&lt;div&gt;Voluntad&lt;br&gt;&lt;/div&gt;" style="ellipse;whiteSpace=wrap;html=1;" parent="1" vertex="1">
          <mxGeometry x="305" y="80" width="140" height="70" as="geometry" />
        </mxCell>
        <mxCell id="opwTgjGISmNo6KvwqeTO-10" value="include" style="html=1;verticalAlign=bottom;endArrow=open;dashed=1;endSize=8;edgeStyle=elbowEdgeStyle;elbow=vertical;curved=0;rounded=0;exitX=0.5;exitY=0;exitDx=0;exitDy=0;entryX=0.5;entryY=1;entryDx=0;entryDy=0;" parent="1" source="opwTgjGISmNo6KvwqeTO-5" target="opwTgjGISmNo6KvwqeTO-7" edge="1">
          <mxGeometry relative="1" as="geometry">
            <mxPoint x="440" y="370" as="sourcePoint" />
            <mxPoint x="360" y="370" as="targetPoint" />
          </mxGeometry>
        </mxCell>
        <mxCell id="opwTgjGISmNo6KvwqeTO-11" value="include" style="html=1;verticalAlign=bottom;endArrow=open;dashed=1;endSize=8;edgeStyle=elbowEdgeStyle;elbow=vertical;curved=0;rounded=0;exitX=0.5;exitY=0;exitDx=0;exitDy=0;" parent="1" edge="1">
          <mxGeometry relative="1" as="geometry">
            <mxPoint x="549.5" y="320" as="sourcePoint" />
            <mxPoint x="550" y="260" as="targetPoint" />
          </mxGeometry>
        </mxCell>
        <mxCell id="opwTgjGISmNo6KvwqeTO-12" value="" style="html=1;verticalAlign=bottom;endArrow=block;edgeStyle=elbowEdgeStyle;elbow=vertical;curved=0;rounded=0;exitX=0;exitY=0.3333333333333333;exitDx=0;exitDy=0;exitPerimeter=0;entryX=0.5;entryY=1;entryDx=0;entryDy=0;" parent="1" source="opwTgjGISmNo6KvwqeTO-1" target="opwTgjGISmNo6KvwqeTO-5" edge="1">
          <mxGeometry width="80" relative="1" as="geometry">
            <mxPoint x="360" y="370" as="sourcePoint" />
            <mxPoint x="440" y="370" as="targetPoint" />
          </mxGeometry>
        </mxCell>
        <mxCell id="opwTgjGISmNo6KvwqeTO-13" value="" style="html=1;verticalAlign=bottom;endArrow=block;edgeStyle=elbowEdgeStyle;elbow=vertical;curved=0;rounded=0;exitX=1;exitY=0.3333333333333333;exitDx=0;exitDy=0;exitPerimeter=0;entryX=0.55;entryY=1.029;entryDx=0;entryDy=0;entryPerimeter=0;" parent="1" source="opwTgjGISmNo6KvwqeTO-1" target="opwTgjGISmNo6KvwqeTO-6" edge="1">
          <mxGeometry width="80" relative="1" as="geometry">
            <mxPoint x="370" y="470" as="sourcePoint" />
            <mxPoint x="220" y="410" as="targetPoint" />
          </mxGeometry>
        </mxCell>
        <mxCell id="opwTgjGISmNo6KvwqeTO-14" value="extend" style="html=1;verticalAlign=bottom;endArrow=open;dashed=1;endSize=8;edgeStyle=elbowEdgeStyle;elbow=vertical;curved=0;rounded=0;exitX=0;exitY=0.5;exitDx=0;exitDy=0;entryX=0.5;entryY=0;entryDx=0;entryDy=0;" parent="1" source="opwTgjGISmNo6KvwqeTO-9" target="opwTgjGISmNo6KvwqeTO-7" edge="1">
          <mxGeometry relative="1" as="geometry">
            <mxPoint x="340" y="240" as="sourcePoint" />
            <mxPoint x="340" y="170" as="targetPoint" />
          </mxGeometry>
        </mxCell>
        <mxCell id="opwTgjGISmNo6KvwqeTO-15" value="extend" style="html=1;verticalAlign=bottom;endArrow=open;dashed=1;endSize=8;edgeStyle=elbowEdgeStyle;elbow=vertical;curved=0;rounded=0;exitX=1;exitY=0.5;exitDx=0;exitDy=0;entryX=0.5;entryY=0;entryDx=0;entryDy=0;" parent="1" source="opwTgjGISmNo6KvwqeTO-9" target="opwTgjGISmNo6KvwqeTO-8" edge="1">
          <mxGeometry relative="1" as="geometry">
            <mxPoint x="315" y="125" as="sourcePoint" />
            <mxPoint x="220" y="200" as="targetPoint" />
          </mxGeometry>
        </mxCell>
      </root>
    </mxGraphModel>
  </diagram>
</mxfile>
